<svg xmlns="http://www.w3.org/2000/svg" viewBox="0 0 1200 800">
  <defs>
    <linearGradient id="bg" x1="0" y1="0" x2="1" y2="1">
      <stop offset="0" stop-color="#2f4b4a"/>
      <stop offset="1" stop-color="#1b2d2c"/>
    </linearGradient>
    <linearGradient id="bun" x1="0" y1="0" x2="0" y2="1">
      <stop offset="0" stop-color="#f0ad55"/>
      <stop offset="1" stop-color="#bf6f2c"/>
    </linearGradient>
  </defs>
  <rect width="1200" height="800" fill="url(#bg)"/>
  <ellipse cx="420" cy="660" rx="230" ry="30" fill="#000" opacity="0.25"/>
  <ellipse cx="800" cy="660" rx="230" ry="30" fill="#000" opacity="0.25"/>
  <g>
    <path d="M220 610h400c0 30-20 46-50 46H270c-30 0-50-16-50-46z" fill="url(#bun)"/>
    <rect x="205" y="550" width="430" height="60" rx="30" fill="#5a2d16"/>
    <path d="M205 550l40-24 36 24 40-24 36 24 40-24 36 24 40-24 36 24 40-24 36 24 40-24 34 24z" fill="#f2c230"/>
    <path d="M214 515c60-22 352-22 412 0l-14 22H228z" fill="#4f9a35"/>
    <path d="M215 515c0-130 95-200 205-200s205 70 205 200z" fill="url(#bun)"/>
  </g>
  <g>
    <path d="M600 610h400c0 30-20 46-50 46H650c-30 0-50-16-50-46z" fill="url(#bun)"/>
    <rect x="585" y="550" width="430" height="60" rx="30" fill="#5a2d16"/>
    <rect x="595" y="520" width="410" height="30" rx="15" fill="#d6402a"/>
    <path d="M594 495c60-22 352-22 412 0l-14 22H608z" fill="#4f9a35"/>
    <path d="M595 495c0-130 95-200 205-200s205 70 205 200z" fill="url(#bun)"/>
  </g>
  <g fill="#fbe7c2">
    <ellipse cx="360" cy="390" rx="10" ry="6" transform="rotate(-20 360 390)"/>
    <ellipse cx="430" cy="360" rx="10" ry="6" transform="rotate(10 430 360)"/>
    <ellipse cx="490" cy="400" rx="10" ry="6" transform="rotate(25 490 400)"/>
    <ellipse cx="740" cy="370" rx="10" ry="6" transform="rotate(-15 740 370)"/>
    <ellipse cx="810" cy="340" rx="10" ry="6" transform="rotate(10 810 340)"/>
    <ellipse cx="870" cy="380" rx="10" ry="6" transform="rotate(30 870 380)"/>
  </g>
</svg>
