<svg xmlns="http://www.w3.org/2000/svg" viewBox="0 0 1200 800">
  <defs>
    <radialGradient id="bg" cx="50%" cy="45%" r="75%">
      <stop offset="0" stop-color="#7a3b1d"/>
      <stop offset="1" stop-color="#2b140b"/>
    </radialGradient>
    <radialGradient id="crust" cx="50%" cy="50%" r="50%">
      <stop offset="0.82" stop-color="#e7a756"/>
      <stop offset="1" stop-color="#b86a2a"/>
    </radialGradient>
  </defs>
  <rect width="1200" height="800" fill="url(#bg)"/>
  <circle cx="600" cy="400" r="300" fill="url(#crust)"/>
  <circle cx="600" cy="400" r="262" fill="#c8361f"/>
  <g fill="#f6e3b0" opacity="0.92">
    <ellipse cx="520" cy="300" rx="70" ry="48"/>
    <ellipse cx="700" cy="330" rx="62" ry="44"/>
    <ellipse cx="610" cy="470" rx="80" ry="52"/>
    <ellipse cx="460" cy="460" rx="54" ry="40"/>
    <ellipse cx="750" cy="490" rx="58" ry="40"/>
  </g>
  <g fill="#8e1c12">
    <circle cx="590" cy="250" r="34"/>
    <circle cx="430" cy="360" r="32"/>
    <circle cx="780" cy="400" r="34"/>
    <circle cx="540" cy="560" r="32"/>
    <circle cx="690" cy="590" r="30"/>
    <circle cx="640" cy="380" r="30"/>
  </g>
  <g fill="#3f7d2a">
    <path d="M500 400c20-30 60-30 70 0-20 25-50 25-70 0z"/>
    <path d="M700 250c20-30 60-30 70 0-20 25-50 25-70 0z"/>
    <path d="M660 520c20-30 60-30 70 0-20 25-50 25-70 0z"/>
  </g>
</svg>
